<svg width="171" height="56" viewBox="0 0 171 56" fill="none" xmlns="http://www.w3.org/2000/svg">
<path d="M65.1065 28.6084C63.6913 28.6084 62.4228 28.3732 61.3011 27.9113C60.1793 27.4494 59.2128 26.7943 58.4189 25.9545C57.6251 25.1147 57.0124 24.0985 56.5982 22.9143C56.184 21.7301 55.9683 20.4368 55.9683 19.0175C55.9683 17.5814 56.1926 16.2629 56.6586 15.0535C57.1159 13.8442 57.7631 12.7944 58.6001 11.9125C59.4372 11.0307 60.4295 10.3505 61.5686 9.86337C62.7162 9.37627 63.9761 9.14111 65.3481 9.14111C66.8409 9.14111 68.1612 9.41826 69.3175 9.97254C70.4738 10.5268 71.4057 11.2995 72.1219 12.2989C72.8381 13.2983 73.2696 14.4656 73.4077 15.801H71.3798C71.121 14.8687 70.7067 14.0709 70.1286 13.4074C69.5504 12.7356 68.8601 12.2233 68.0576 11.8706C67.2551 11.5094 66.3491 11.3331 65.3567 11.3331C63.9847 11.3331 62.7766 11.669 61.7325 12.3325C60.6884 13.0043 59.8686 13.9197 59.2732 15.0787C58.6778 16.2377 58.3758 17.5562 58.3758 19.0259C58.3758 20.4956 58.6433 21.7889 59.1783 22.9059C59.7133 24.0229 60.4899 24.8879 61.5081 25.5094C62.5264 26.1309 63.7258 26.4416 65.1237 26.4416C66.2024 26.4416 67.1429 26.24 67.9454 25.8285C68.7479 25.417 69.4038 24.8291 69.9043 24.0397C70.4047 23.2586 70.7413 22.2928 70.9225 21.1507H72.3808C72.0615 23.6534 71.259 25.5178 69.9646 26.7607C68.653 27.9869 67.0394 28.6084 65.1065 28.6084ZM71.8889 28.3144C71.8889 27.6761 71.9062 26.9539 71.9321 26.1477C71.958 25.3414 72.0097 24.5268 72.0701 23.6953C72.1305 22.8639 72.1823 22.1165 72.2168 21.4614H65.6501V19.2862H74.2188V28.3228H71.8889V28.3144Z" fill="black"/>
<path d="M80.0835 9.14111V25.2889H90.0362V27.3917H77.8691V9.14111H80.0835Z" fill="black"/>
<path d="M102.811 28.6084C101.123 28.6084 99.5829 28.2052 98.2075 27.399C96.8321 26.5928 95.7368 25.4674 94.9132 24.0145C94.0896 22.5616 93.686 20.8483 93.686 18.8747C93.686 16.9011 94.0978 15.1795 94.9132 13.7182C95.7285 12.2569 96.8239 11.1315 98.2075 10.3337C99.5829 9.53583 101.115 9.14111 102.811 9.14111C104.508 9.14111 106.04 9.53583 107.415 10.3337C108.791 11.1315 109.886 12.2569 110.709 13.7182C111.525 15.1795 111.937 16.9011 111.937 18.8747C111.937 20.8483 111.525 22.5616 110.709 24.0145C109.894 25.4674 108.799 26.5928 107.415 27.399C106.032 28.2052 104.5 28.6084 102.811 28.6084ZM102.811 26.4248C104.104 26.4248 105.266 26.1393 106.287 25.5682C107.308 24.9971 108.132 24.1489 108.741 23.0235C109.351 21.8981 109.655 20.5124 109.655 18.8663C109.655 17.2203 109.351 15.8429 108.741 14.726C108.132 13.609 107.316 12.7608 106.287 12.1813C105.257 11.6018 104.104 11.3079 102.811 11.3079C101.535 11.3079 100.382 11.6018 99.3523 12.1813C98.3146 12.7608 97.4992 13.609 96.8898 14.726C96.2803 15.8429 95.9756 17.2203 95.9756 18.8663C95.9756 20.5124 96.2803 21.8981 96.8898 23.0235C97.4992 24.1489 98.3228 24.9971 99.3523 25.5682C100.382 26.1393 101.535 26.4248 102.811 26.4248Z" fill="black"/>
<path d="M123.495 28.6084C121.807 28.6084 120.267 28.2052 118.892 27.399C117.516 26.5928 116.421 25.4674 115.597 24.0145C114.774 22.5616 114.37 20.8483 114.37 18.8747C114.37 16.9011 114.782 15.1795 115.597 13.7182C116.413 12.2569 117.508 11.1315 118.892 10.3337C120.267 9.53583 121.799 9.14111 123.495 9.14111C125.192 9.14111 126.724 9.53583 128.099 10.3337C129.475 11.1315 130.57 12.2569 131.394 13.7182C132.209 15.1795 132.621 16.9011 132.621 18.8747C132.621 20.8483 132.209 22.5616 131.394 24.0145C130.578 25.4674 129.483 26.5928 128.099 27.399C126.724 28.2052 125.184 28.6084 123.495 28.6084ZM123.495 26.4248C124.788 26.4248 125.95 26.1393 126.971 25.5682C127.992 24.9971 128.816 24.1489 129.425 23.0235C130.035 21.8981 130.339 20.5124 130.339 18.8663C130.339 17.2203 130.035 15.8429 129.425 14.726C128.816 13.609 128 12.7608 126.971 12.1813C125.941 11.6018 124.788 11.3079 123.495 11.3079C122.219 11.3079 121.066 11.6018 120.036 12.1813C118.999 12.7608 118.183 13.609 117.574 14.726C116.964 15.8429 116.66 17.2203 116.66 18.8663C116.66 20.5124 116.964 21.8981 117.574 23.0235C118.183 24.1489 119.007 24.9971 120.036 25.5682C121.066 26.1393 122.219 26.4248 123.495 26.4248Z" fill="black"/>
<path d="M136.271 27.3917V9.14111H144.622C145.942 9.14111 147.069 9.33587 147.995 9.71727C148.928 10.0987 149.643 10.6748 150.131 11.4458C150.627 12.2167 150.871 13.1742 150.871 14.3347C150.871 15.1218 150.736 15.7954 150.476 16.3553C150.215 16.9152 149.853 17.3859 149.382 17.7754C148.92 18.1568 148.365 18.4571 147.742 18.66C147.111 18.8628 146.43 19.0008 145.69 19.0495L145.606 18.9115C146.632 18.9521 147.515 19.0738 148.255 19.2767C148.995 19.4796 149.567 19.8529 149.971 20.3966C150.375 20.9403 150.585 21.7518 150.585 22.8392V27.3835H148.255V22.8392C148.255 22.0926 148.121 21.5083 147.86 21.0863C147.599 20.6644 147.162 20.3641 146.548 20.1856C145.934 20.007 145.101 19.9178 144.033 19.9178H138.592V27.3835H136.271V27.3917ZM138.6 17.816H144.622C145.942 17.816 146.926 17.4914 147.574 16.8503C148.222 16.2011 148.55 15.3653 148.55 14.3347C148.55 13.3447 148.222 12.5819 147.574 12.0463C146.926 11.5107 145.942 11.2429 144.622 11.2429H138.6V17.816Z" fill="black"/>
<path d="M153.305 27.3917L160.556 9.14111H163.027L170.339 27.3917H167.808L161.431 10.8858H162.136L155.759 27.3917H153.305ZM157.185 22.6201V20.5183H166.348V22.6201H157.185Z" fill="black"/>
<path d="M101.414 35.1074H103.766C104.091 35.1074 104.403 35.1393 104.703 35.203C105.009 35.2604 105.279 35.3624 105.515 35.5089C105.751 35.6555 105.939 35.8531 106.079 36.1016C106.219 36.3502 106.29 36.6657 106.29 37.0481C106.29 37.5388 106.153 37.9499 105.879 38.2813C105.611 38.6127 105.225 38.8135 104.722 38.8836L106.519 41.8758H105.066L103.498 39.0078H102.619V41.8758H101.414V35.1074ZM103.555 37.9754C103.728 37.9754 103.9 37.969 104.072 37.9563C104.244 37.9371 104.4 37.8989 104.54 37.8415C104.687 37.7778 104.805 37.6854 104.894 37.5643C104.983 37.4368 105.028 37.2616 105.028 37.0385C105.028 36.8409 104.986 36.6816 104.903 36.5605C104.821 36.4394 104.712 36.3502 104.578 36.2928C104.445 36.2291 104.295 36.1877 104.129 36.1686C103.97 36.1494 103.814 36.1399 103.661 36.1399H102.619V37.9754H103.555Z" fill="#F3A17C"/>
<path d="M95.5703 35.1074H100.054V36.1972H96.7749V37.8607H99.8818V38.9505H96.7749V40.786H100.226V41.8758H95.5703V35.1074Z" fill="#F3A17C"/>
<path d="M88.4102 35.1074H89.7963L91.6414 40.2219L93.5438 35.1074H94.8439L92.1098 41.8758H91.0678L88.4102 35.1074Z" fill="#F3A17C"/>
<path d="M80.8672 38.5204C80.8672 37.9786 80.9564 37.4879 81.1349 37.0481C81.3133 36.602 81.5587 36.2228 81.871 35.9105C82.1896 35.5982 82.5657 35.3592 82.999 35.1935C83.4388 35.0215 83.92 34.9354 84.4426 34.9354C84.9715 34.929 85.4559 35.0087 85.8957 35.1744C86.3354 35.3337 86.7146 35.5695 87.0333 35.8818C87.3519 36.1941 87.6005 36.5701 87.7789 37.0099C87.9574 37.4496 88.0466 37.9404 88.0466 38.4821C88.0466 39.0111 87.9574 39.4923 87.7789 39.9256C87.6005 40.359 87.3519 40.7319 87.0333 41.0441C86.7146 41.3564 86.3354 41.6018 85.8957 41.7803C85.4559 41.9523 84.9715 42.0416 84.4426 42.0479C83.92 42.0479 83.4388 41.9651 82.999 41.7994C82.5657 41.6273 82.1896 41.3883 81.871 41.0824C81.5587 40.7701 81.3133 40.3973 81.1349 39.9639C80.9564 39.5305 80.8672 39.0493 80.8672 38.5204ZM82.1291 38.4439C82.1291 38.8071 82.1833 39.1417 82.2916 39.4477C82.4063 39.7536 82.5657 40.0181 82.7696 40.2411C82.9735 40.4642 83.2157 40.6394 83.4961 40.7669C83.7829 40.8944 84.1016 40.9581 84.4521 40.9581C84.8027 40.9581 85.1213 40.8944 85.4081 40.7669C85.6949 40.6394 85.9403 40.4642 86.1442 40.2411C86.3482 40.0181 86.5043 39.7536 86.6127 39.4477C86.7274 39.1417 86.7847 38.8071 86.7847 38.4439C86.7847 38.1061 86.7274 37.7906 86.6127 37.4974C86.5043 37.2043 86.3482 36.9494 86.1442 36.7327C85.9403 36.5096 85.6949 36.3375 85.4081 36.2164C85.1213 36.089 84.8027 36.0252 84.4521 36.0252C84.1016 36.0252 83.7829 36.089 83.4961 36.2164C83.2157 36.3375 82.9735 36.5096 82.7696 36.7327C82.5657 36.9494 82.4063 37.2043 82.2916 37.4974C82.1833 37.7906 82.1291 38.1061 82.1291 38.4439Z" fill="#F3A17C"/>
<path d="M79.3321 36.6943C79.0836 36.4266 78.8414 36.2482 78.6056 36.159C78.3761 36.0697 78.1435 36.0251 77.9077 36.0251C77.5572 36.0251 77.2385 36.0889 76.9517 36.2163C76.6713 36.3374 76.4291 36.5095 76.2252 36.7326C76.0212 36.9492 75.8619 37.2042 75.7472 37.4973C75.6388 37.7905 75.5847 38.106 75.5847 38.4438C75.5847 38.807 75.6388 39.1416 75.7472 39.4475C75.8619 39.7535 76.0212 40.0179 76.2252 40.241C76.4291 40.4641 76.6713 40.6393 76.9517 40.7668C77.2385 40.8943 77.5572 40.958 77.9077 40.958C78.1817 40.958 78.4462 40.8943 78.7012 40.7668C78.9625 40.633 79.2046 40.4226 79.4277 40.1359L80.4219 40.8433C80.116 41.2639 79.7432 41.5698 79.3034 41.761C78.8637 41.9522 78.3952 42.0478 77.8981 42.0478C77.3755 42.0478 76.8944 41.965 76.4546 41.7993C76.0212 41.6272 75.6452 41.3882 75.3265 41.0823C75.0142 40.77 74.7689 40.3972 74.5904 39.9638C74.412 39.5304 74.3228 39.0492 74.3228 38.5202C74.3228 37.9785 74.412 37.4878 74.5904 37.048C74.7689 36.6019 75.0142 36.2227 75.3265 35.9104C75.6452 35.5981 76.0212 35.3591 76.4546 35.1934C76.8944 35.0213 77.3755 34.9353 77.8981 34.9353C78.357 34.9353 78.7808 35.0182 79.1696 35.1839C79.5647 35.3432 79.9312 35.6172 80.269 36.006L79.3321 36.6943Z" fill="#F3A17C"/>
<path d="M72.5144 36.5605C72.387 36.3757 72.2149 36.2418 71.9982 36.159C71.7879 36.0697 71.5648 36.0251 71.329 36.0251C71.1888 36.0251 71.0518 36.0411 70.9179 36.0729C70.7905 36.1048 70.6726 36.1558 70.5642 36.2259C70.4622 36.296 70.3794 36.3884 70.3157 36.5031C70.2519 36.6115 70.2201 36.7421 70.2201 36.8951C70.2201 37.1245 70.2997 37.2998 70.4591 37.4209C70.6184 37.542 70.816 37.6471 71.0518 37.7363C71.2876 37.8256 71.5457 37.9116 71.8261 37.9945C72.1065 38.0773 72.3646 38.192 72.6005 38.3386C72.8363 38.4852 73.0338 38.6796 73.1932 38.9218C73.3525 39.1639 73.4322 39.4858 73.4322 39.8873C73.4322 40.2506 73.3652 40.5692 73.2314 40.8433C73.0976 41.111 72.9159 41.334 72.6865 41.5125C72.4634 41.6909 72.2021 41.8248 71.9026 41.914C71.603 42.0032 71.2876 42.0478 70.9562 42.0478C70.5355 42.0478 70.1308 41.9777 69.7421 41.8375C69.3533 41.6973 69.0187 41.4615 68.7383 41.1301L69.6465 40.2506C69.793 40.4736 69.9842 40.6489 70.2201 40.7764C70.4622 40.8975 70.7172 40.958 70.9848 40.958C71.1251 40.958 71.2653 40.9389 71.4055 40.9006C71.5457 40.8624 71.6732 40.805 71.7879 40.7286C71.9026 40.6521 71.995 40.5565 72.0651 40.4418C72.1352 40.3207 72.1703 40.1837 72.1703 40.0307C72.1703 39.7821 72.0906 39.5909 71.9313 39.4571C71.7719 39.3233 71.5744 39.2117 71.3386 39.1225C71.1027 39.0269 70.8446 38.9377 70.5642 38.8548C70.2838 38.772 70.0257 38.6605 69.7899 38.5202C69.5541 38.3737 69.3565 38.1825 69.1972 37.9467C69.0378 37.7045 68.9582 37.3826 68.9582 36.9811C68.9582 36.6306 69.0283 36.3279 69.1685 36.0729C69.3151 35.818 69.5031 35.6077 69.7325 35.442C69.9683 35.2699 70.236 35.1424 70.5355 35.0596C70.8351 34.9767 71.141 34.9353 71.4533 34.9353C71.8102 34.9353 72.1543 34.9895 72.4857 35.0978C72.8235 35.2062 73.1262 35.3846 73.3939 35.6332L72.5144 36.5605Z" fill="#F3A17C"/>
<path d="M66.5073 35.1074H67.7119V41.8758H66.5073V35.1074Z" fill="#F3A17C"/>
<path d="M59.2817 35.1074H61.9489C62.3951 35.1074 62.8253 35.1775 63.2395 35.3177C63.6538 35.4516 64.0202 35.6587 64.3389 35.9391C64.6576 36.2195 64.9125 36.5733 65.1037 37.0003C65.2949 37.4209 65.3905 37.918 65.3905 38.4916C65.3905 39.0716 65.2789 39.5751 65.0559 40.0021C64.8392 40.4227 64.5556 40.7732 64.2051 41.0536C63.8609 41.3277 63.4753 41.5348 63.0483 41.675C62.6277 41.8089 62.2134 41.8758 61.8055 41.8758H59.2817V35.1074ZM61.3849 40.786C61.7609 40.786 62.1146 40.7445 62.446 40.6617C62.7838 40.5725 63.077 40.4386 63.3255 40.2602C63.5741 40.0753 63.7685 39.8395 63.9087 39.5527C64.0553 39.2596 64.1286 38.9059 64.1286 38.4916C64.1286 38.0837 64.0648 37.7332 63.9374 37.44C63.8099 37.1469 63.6315 36.911 63.402 36.7326C63.179 36.5478 62.9113 36.4139 62.599 36.3311C62.2931 36.2419 61.9553 36.1972 61.5857 36.1972H60.4863V40.786H61.3849Z" fill="#F3A17C"/>
<path d="M108.622 44.4856H109.941L111.213 49.3611H111.232L112.752 44.4856H113.937L115.429 49.3611H115.448L116.777 44.4856H118L116.031 51.254H114.884L113.316 46.1012H113.297L111.729 51.254H110.62L108.622 44.4856Z" fill="#F3A17C"/>
<path d="M101.051 47.8985C101.051 47.3568 101.14 46.8661 101.318 46.4263C101.497 45.9802 101.742 45.601 102.055 45.2887C102.373 44.9764 102.749 44.7374 103.183 44.5717C103.622 44.3996 104.104 44.3136 104.626 44.3136C105.155 44.3072 105.64 44.3869 106.079 44.5526C106.519 44.7119 106.898 44.9477 107.217 45.26C107.536 45.5723 107.784 45.9483 107.963 46.3881C108.141 46.8278 108.23 47.3186 108.23 47.8603C108.23 48.3893 108.141 48.8704 107.963 49.3038C107.784 49.7372 107.536 50.11 107.217 50.4223C106.898 50.7346 106.519 50.98 106.079 51.1584C105.64 51.3305 105.155 51.4197 104.626 51.4261C104.104 51.4261 103.622 51.3433 103.183 51.1775C102.749 51.0055 102.373 50.7665 102.055 50.4606C101.742 50.1483 101.497 49.7754 101.318 49.3421C101.14 48.9087 101.051 48.4275 101.051 47.8985ZM102.313 47.822C102.313 48.1853 102.367 48.5199 102.475 48.8258C102.59 49.1317 102.749 49.3962 102.953 49.6193C103.157 49.8424 103.399 50.0176 103.68 50.1451C103.967 50.2726 104.285 50.3363 104.636 50.3363C104.986 50.3363 105.305 50.2726 105.592 50.1451C105.878 50.0176 106.124 49.8424 106.328 49.6193C106.532 49.3962 106.688 49.1317 106.796 48.8258C106.911 48.5199 106.968 48.1853 106.968 47.822C106.968 47.4843 106.911 47.1688 106.796 46.8756C106.688 46.5825 106.532 46.3275 106.328 46.1108C106.124 45.8878 105.878 45.7157 105.592 45.5946C105.305 45.4671 104.986 45.4034 104.636 45.4034C104.285 45.4034 103.967 45.4671 103.68 45.5946C103.399 45.7157 103.157 45.8878 102.953 46.1108C102.749 46.3275 102.59 46.5825 102.475 46.8756C102.367 47.1688 102.313 47.4843 102.313 47.822Z" fill="#F3A17C"/>
<path d="M96.4561 44.4856H97.6606V50.1641H100.538V51.254H96.4561V44.4856Z" fill="#F3A17C"/>
<path d="M95.0288 50.7568C94.1939 51.2029 93.2602 51.426 92.2277 51.426C91.7051 51.426 91.2239 51.3431 90.7842 51.1774C90.3508 51.0054 89.9748 50.7664 89.6561 50.4605C89.3438 50.1482 89.0985 49.7753 88.92 49.342C88.7416 48.9086 88.6523 48.4274 88.6523 47.8984C88.6523 47.3567 88.7416 46.866 88.92 46.4262C89.0985 45.9801 89.3438 45.6009 89.6561 45.2886C89.9748 44.9763 90.3508 44.7373 90.7842 44.5716C91.2239 44.3995 91.7051 44.3135 92.2277 44.3135C92.744 44.3135 93.2283 44.3772 93.6808 44.5047C94.1333 44.6258 94.538 44.8456 94.8949 45.1643L94.0059 46.0629C93.7892 45.8526 93.5247 45.6901 93.2124 45.5754C92.9065 45.4607 92.5814 45.4033 92.2373 45.4033C91.8868 45.4033 91.5681 45.467 91.2813 45.5945C91.0009 45.7156 90.7587 45.8877 90.5548 46.1107C90.3508 46.3274 90.1915 46.5823 90.0768 46.8755C89.9684 47.1687 89.9142 47.4842 89.9142 47.8219C89.9142 48.1852 89.9684 48.5198 90.0768 48.8257C90.1915 49.1316 90.3508 49.3961 90.5548 49.6192C90.7587 49.8422 91.0009 50.0175 91.2813 50.145C91.5681 50.2724 91.8868 50.3362 92.2373 50.3362C92.5432 50.3362 92.83 50.3075 93.0977 50.2501C93.3717 50.1928 93.6139 50.1035 93.8242 49.9825V48.386H92.438V47.2961H95.0288V50.7568Z" fill="#F3A17C"/>
<path d="M80.165 44.4856H82.5168C82.8418 44.4856 83.1541 44.5175 83.4536 44.5812C83.7595 44.6386 84.0304 44.7405 84.2662 44.8871C84.502 45.0337 84.69 45.2313 84.8302 45.4798C84.9704 45.7284 85.0406 46.0438 85.0406 46.4262C85.0406 46.917 84.9035 47.3281 84.6295 47.6595C84.3618 47.9909 83.9762 48.1916 83.4727 48.2617L85.27 51.254H83.8169L82.2491 48.386H81.3696V51.254H80.165V44.4856ZM82.3064 47.3535C82.4785 47.3535 82.6506 47.3472 82.8227 47.3344C82.9948 47.3153 83.1509 47.2771 83.2911 47.2197C83.4377 47.156 83.5556 47.0636 83.6448 46.9425C83.734 46.815 83.7787 46.6397 83.7787 46.4167C83.7787 46.2191 83.7372 46.0598 83.6544 45.9387C83.5715 45.8176 83.4632 45.7284 83.3293 45.671C83.1955 45.6073 83.0457 45.5659 82.88 45.5467C82.7207 45.5276 82.5646 45.5181 82.4116 45.5181H81.3696V47.3535H82.3064Z" fill="#F3A17C"/>
<path d="M78.6864 48.7684C78.6864 49.1763 78.6163 49.5459 78.4761 49.8773C78.3359 50.2024 78.1447 50.4796 77.9025 50.709C77.6603 50.9385 77.3735 51.1169 77.0421 51.2444C76.7107 51.3655 76.3506 51.426 75.9619 51.426C75.5731 51.426 75.213 51.3655 74.8816 51.2444C74.5502 51.1169 74.2602 50.9385 74.0117 50.709C73.7695 50.4796 73.5783 50.2024 73.4381 49.8773C73.3042 49.5459 73.2373 49.1763 73.2373 48.7684V44.4856H74.4418V48.7302C74.4418 48.8959 74.4673 49.0711 74.5183 49.256C74.5693 49.4344 74.6522 49.6001 74.7669 49.7531C74.888 49.906 75.0441 50.0335 75.2353 50.1355C75.4329 50.2311 75.6751 50.2789 75.9619 50.2789C76.2487 50.2789 76.4876 50.2311 76.6788 50.1355C76.8764 50.0335 77.0326 49.906 77.1473 49.7531C77.2684 49.6001 77.3544 49.4344 77.4054 49.256C77.4564 49.0711 77.4819 48.8959 77.4819 48.7302V44.4856H78.6864V48.7684Z" fill="#F3A17C"/>
<path d="M64.9395 47.8985C64.9395 47.3568 65.0287 46.8661 65.2071 46.4263C65.3856 45.9802 65.6309 45.601 65.9432 45.2887C66.2619 44.9764 66.6379 44.7374 67.0713 44.5717C67.511 44.3996 67.9922 44.3136 68.5148 44.3136C69.0438 44.3072 69.5282 44.3869 69.9679 44.5526C70.4077 44.7119 70.7869 44.9477 71.1055 45.26C71.4242 45.5723 71.6728 45.9483 71.8512 46.3881C72.0297 46.8278 72.1189 47.3186 72.1189 47.8603C72.1189 48.3893 72.0297 48.8704 71.8512 49.3038C71.6728 49.7372 71.4242 50.11 71.1055 50.4223C70.7869 50.7346 70.4077 50.98 69.9679 51.1584C69.5282 51.3305 69.0438 51.4197 68.5148 51.4261C67.9922 51.4261 67.511 51.3433 67.0713 51.1775C66.6379 51.0055 66.2619 50.7665 65.9432 50.4606C65.6309 50.1483 65.3856 49.7754 65.2071 49.3421C65.0287 48.9087 64.9395 48.4275 64.9395 47.8985ZM66.2014 47.822C66.2014 48.1853 66.2555 48.5199 66.3639 48.8258C66.4786 49.1317 66.6379 49.3962 66.8419 49.6193C67.0458 49.8424 67.288 50.0176 67.5684 50.1451C67.8552 50.2726 68.1739 50.3363 68.5244 50.3363C68.8749 50.3363 69.1936 50.2726 69.4804 50.1451C69.7672 50.0176 70.0125 49.8424 70.2165 49.6193C70.4204 49.3962 70.5766 49.1317 70.6849 48.8258C70.7996 48.5199 70.857 48.1853 70.857 47.822C70.857 47.4843 70.7996 47.1688 70.6849 46.8756C70.5766 46.5825 70.4204 46.3275 70.2165 46.1108C70.0125 45.8878 69.7672 45.7157 69.4804 45.5946C69.1936 45.4671 68.8749 45.4034 68.5244 45.4034C68.1739 45.4034 67.8552 45.4671 67.5684 45.5946C67.288 45.7157 67.0458 45.8878 66.8419 46.1108C66.6379 46.3275 66.4786 46.5825 66.3639 46.8756C66.2555 47.1688 66.2014 47.4843 66.2014 47.822Z" fill="#F3A17C"/>
<path d="M60.935 48.3573L58.3921 44.4856H59.9025L61.566 47.1815L63.2485 44.4856H64.6825L62.1395 48.3573V51.254H60.935V48.3573Z" fill="#F3A17C"/>
<path d="M37.8782 0.624146H7.13981C3.2026 0.624146 0 3.81148 0 7.72994V48.27C0 52.1884 3.2026 55.3758 7.13981 55.3758H10.9202H13.6688H31.2584H34.007H37.8782C41.8154 55.3758 45.018 52.1884 45.018 48.27V7.72994C45.018 3.81148 41.8154 0.624146 37.8782 0.624146ZM3.12006 13.62L13.413 23.6256H3.12006V13.62ZM3.12006 26.7226H16.6073L20.9077 30.9039V37.5086L20.8994 39.0612H3.12006V26.7226ZM24.0278 23.412L41.4935 5.98841C41.7494 6.51415 41.8979 7.10562 41.8979 7.72994V17.6452L24.0195 34.7402V23.412H24.0278ZM41.8979 21.9498V38.5272L33.2228 30.2549L41.8979 21.9498ZM39.1493 3.93471L24.0278 19.0171V3.72934H37.8782C38.3239 3.72934 38.7449 3.80327 39.1493 3.93471ZM7.13981 3.72934H20.9077V26.5665L3.12006 9.27433V7.72994C3.12006 5.52837 4.91945 3.72934 7.13981 3.72934ZM10.9202 52.2788H7.13981C4.91945 52.2788 3.12006 50.4797 3.12006 48.2782V42.1746H20.8912L20.8829 45.1237C20.8747 49.075 17.6391 52.287 13.6688 52.287H10.9202V52.2788ZM37.8782 52.2788H34.007H31.2584C27.2881 52.2788 24.0525 49.0668 24.0443 45.1155L24.0278 39.0448L30.9695 32.4072L41.8979 42.8318V48.2864C41.8979 50.488 40.0985 52.2788 37.8782 52.2788Z" fill="#F3A17C"/>
</svg>
