<svg width="123" height="40" viewBox="0 0 123 40" fill="none" xmlns="http://www.w3.org/2000/svg">
<path d="M46.8734 20.1467C45.8546 20.1467 44.9414 19.9774 44.1338 19.6448C43.3261 19.3123 42.6303 18.8407 42.0588 18.236C41.4872 17.6314 41.0461 16.8998 40.748 16.0473C40.4498 15.1948 40.2944 14.2636 40.2944 13.2418C40.2944 12.2079 40.456 11.2586 40.7914 10.3879C41.1207 9.51727 41.5866 8.76149 42.1892 8.12663C42.7919 7.49176 43.5063 7.00202 44.3263 6.65133C45.1526 6.30064 46.0596 6.13135 47.0474 6.13135C48.1222 6.13135 49.0726 6.33087 49.9051 6.72993C50.7376 7.12899 51.4085 7.68524 51.9242 8.40476C52.4398 9.12427 52.7504 9.96471 52.8498 10.9261H51.3899C51.2035 10.2549 50.9053 9.68053 50.4891 9.20287C50.0729 8.71916 49.5759 8.35034 48.9981 8.0964C48.4203 7.83641 47.768 7.70943 47.0536 7.70943C46.0658 7.70943 45.1961 7.95128 44.4444 8.42894C43.6927 8.91265 43.1025 9.5717 42.6738 10.4061C42.2452 11.2405 42.0277 12.1897 42.0277 13.2478C42.0277 14.306 42.2203 15.2371 42.6055 16.0412C42.9906 16.8454 43.5498 17.4682 44.2828 17.9156C45.0159 18.363 45.8794 18.5867 46.8859 18.5867C47.6624 18.5867 48.3396 18.4416 48.9173 18.1454C49.4951 17.8491 49.9673 17.4258 50.3276 16.8575C50.6879 16.2952 50.9302 15.5999 51.0606 14.7776H52.1106C51.8807 16.5794 51.3029 17.9216 50.3711 18.8165C49.4268 19.6993 48.265 20.1467 46.8734 20.1467ZM51.7564 19.9351C51.7564 19.4755 51.7689 18.9556 51.7875 18.3751C51.8061 17.7947 51.8434 17.2082 51.8869 16.6096C51.9304 16.011 51.9677 15.4729 51.9925 15.0013H47.2648V13.4353H53.4338V19.9411H51.7564V19.9351Z" fill="white"/>
<path d="M57.6557 6.13135V17.7569H64.8211V19.2707H56.0615V6.13135H57.6557Z" fill="white"/>
<path d="M74.0184 20.1467C72.8029 20.1467 71.6941 19.8565 70.7039 19.276C69.7137 18.6956 68.9251 17.8854 68.3322 16.8394C67.7393 15.7933 67.4487 14.5599 67.4487 13.139C67.4487 11.7181 67.7452 10.4786 68.3322 9.42658C68.9192 8.37453 69.7078 7.56432 70.7039 6.98992C71.6941 6.41552 72.797 6.13135 74.0184 6.13135C75.2399 6.13135 76.3427 6.41552 77.3329 6.98992C78.3231 7.56432 79.1117 8.37453 79.7046 9.42658C80.2916 10.4786 80.5881 11.7181 80.5881 13.139C80.5881 14.5599 80.2916 15.7933 79.7046 16.8394C79.1176 17.8854 78.329 18.6956 77.3329 19.276C76.3368 19.8565 75.2339 20.1467 74.0184 20.1467ZM74.0184 18.5746C74.9493 18.5746 75.7854 18.3691 76.5206 17.9579C77.2558 17.5468 77.8488 16.9361 78.2875 16.1259C78.7263 15.3157 78.9457 14.318 78.9457 13.133C78.9457 11.9479 78.7263 10.9563 78.2875 10.1521C77.8488 9.34798 77.2618 8.7373 76.5206 8.32011C75.7794 7.90291 74.9493 7.69129 74.0184 7.69129C73.0994 7.69129 72.2693 7.90291 71.5281 8.32011C70.781 8.7373 70.194 9.34798 69.7552 10.1521C69.3165 10.9563 69.0971 11.9479 69.0971 13.133C69.0971 14.318 69.3165 15.3157 69.7552 16.1259C70.194 16.9361 70.7869 17.5468 71.5281 17.9579C72.2693 18.3691 73.0994 18.5746 74.0184 18.5746Z" fill="white"/>
<path d="M88.9095 20.1467C87.694 20.1467 86.5852 19.8565 85.595 19.276C84.6048 18.6956 83.8162 17.8854 83.2233 16.8394C82.6304 15.7933 82.3398 14.5599 82.3398 13.139C82.3398 11.7181 82.6363 10.4786 83.2233 9.42658C83.8103 8.37453 84.5989 7.56432 85.595 6.98992C86.5852 6.41552 87.6881 6.13135 88.9095 6.13135C90.131 6.13135 91.2338 6.41552 92.224 6.98992C93.2142 7.56432 94.0028 8.37453 94.5958 9.42658C95.1828 10.4786 95.4792 11.7181 95.4792 13.139C95.4792 14.5599 95.1828 15.7933 94.5958 16.8394C94.0088 17.8854 93.2202 18.6956 92.224 19.276C91.2338 19.8565 90.1251 20.1467 88.9095 20.1467ZM88.9095 18.5746C89.8404 18.5746 90.6765 18.3691 91.4117 17.9579C92.147 17.5468 92.7399 16.9361 93.1786 16.1259C93.6174 15.3157 93.8368 14.318 93.8368 13.133C93.8368 11.9479 93.6174 10.9563 93.1786 10.1521C92.7399 9.34798 92.1529 8.7373 91.4117 8.32011C90.6705 7.90291 89.8404 7.69129 88.9095 7.69129C87.9905 7.69129 87.1604 7.90291 86.4192 8.32011C85.6721 8.7373 85.0851 9.34798 84.6464 10.1521C84.2076 10.9563 83.9882 11.9479 83.9882 13.133C83.9882 14.318 84.2076 15.3157 84.6464 16.1259C85.0851 16.9361 85.6781 17.5468 86.4192 17.9579C87.1604 18.3691 87.9905 18.5746 88.9095 18.5746Z" fill="white"/>
<path d="M98.1074 19.2707V6.13135H104.12C105.071 6.13135 105.882 6.27156 106.548 6.54615C107.22 6.82074 107.735 7.23555 108.086 7.79057C108.443 8.34559 108.619 9.03498 108.619 9.87043C108.619 10.4371 108.522 10.922 108.334 11.3252C108.147 11.7283 107.886 12.0671 107.547 12.3476C107.214 12.6222 106.815 12.8383 106.366 12.9844C105.912 13.1304 105.422 13.2298 104.889 13.2648L104.828 13.1655C105.567 13.1947 106.203 13.2823 106.736 13.4284C107.269 13.5745 107.68 13.8432 107.971 14.2346C108.262 14.6261 108.413 15.2103 108.413 15.9932V19.2649H106.736V15.9932C106.736 15.4557 106.639 15.035 106.451 14.7312C106.264 14.4274 105.949 14.2113 105.507 14.0827C105.065 13.9542 104.465 13.8899 103.696 13.8899H99.7786V19.2649H98.1074V19.2707ZM99.7847 12.3768H104.12C105.071 12.3768 105.779 12.1431 106.245 11.6816C106.712 11.2142 106.948 10.6124 106.948 9.87043C106.948 9.15767 106.712 8.60849 106.245 8.2229C105.779 7.83731 105.071 7.64451 104.12 7.64451H99.7847V12.3768Z" fill="white"/>
<path d="M110.371 19.2707L115.592 6.13135H117.371L122.635 19.2707H120.813L116.222 7.38745H116.729L112.138 19.2707H110.371ZM113.165 15.8354V14.3223H119.761V15.8354H113.165Z" fill="white"/>
<path d="M70.4854 25.3003H72.0403C72.2552 25.3003 72.4617 25.3214 72.6597 25.3635C72.862 25.4014 73.0411 25.4688 73.197 25.5658C73.3529 25.6627 73.4772 25.7933 73.5699 25.9577C73.6626 26.122 73.709 26.3306 73.709 26.5834C73.709 26.9079 73.6184 27.1797 73.4372 27.3988C73.2602 27.6179 73.0053 27.7507 72.6724 27.797L73.8607 29.7755H72.8999L71.8633 27.8792H71.2818V29.7755H70.4854V25.3003ZM71.9012 27.1965C72.015 27.1965 72.1288 27.1923 72.2425 27.1839C72.3563 27.1713 72.4596 27.146 72.5523 27.1081C72.6492 27.0659 72.7271 27.0048 72.7861 26.9248C72.8451 26.8405 72.8746 26.7246 72.8746 26.5771C72.8746 26.4465 72.8472 26.3411 72.7925 26.2611C72.7377 26.181 72.666 26.122 72.5776 26.0841C72.4891 26.0419 72.39 26.0145 72.2805 26.0019C72.1751 25.9893 72.0719 25.9829 71.9708 25.9829H71.2818V27.1965H71.9012Z" fill="white"/>
<path d="M66.6206 25.3003H69.5851V26.0209H67.417V27.1207H69.4713V27.8413H67.417V29.0549H69.6989V29.7755H66.6206V25.3003Z" fill="white"/>
<path d="M61.8862 25.3003H62.8028L64.0227 28.6819L65.2805 25.3003H66.1402L64.3324 29.7755H63.6434L61.8862 25.3003Z" fill="white"/>
<path d="M56.8989 27.5571C56.8989 27.1989 56.9579 26.8744 57.0759 26.5837C57.1939 26.2887 57.3561 26.038 57.5626 25.8315C57.7733 25.625 58.0219 25.467 58.3085 25.3574C58.5992 25.2436 58.9174 25.1868 59.2629 25.1868C59.6127 25.1825 59.9329 25.2352 60.2237 25.3448C60.5145 25.4501 60.7652 25.606 60.9759 25.8125C61.1866 26.019 61.3509 26.2676 61.4689 26.5584C61.5869 26.8491 61.6459 27.1736 61.6459 27.5318C61.6459 27.8815 61.5869 28.1997 61.4689 28.4862C61.3509 28.7728 61.1866 29.0193 60.9759 29.2258C60.7652 29.4323 60.5145 29.5945 60.2237 29.7125C59.9329 29.8263 59.6127 29.8853 59.2629 29.8895C58.9174 29.8895 58.5992 29.8347 58.3085 29.7251C58.0219 29.6114 57.7733 29.4533 57.5626 29.2511C57.3561 29.0446 57.1939 28.7981 57.0759 28.5115C56.9579 28.225 56.8989 27.9068 56.8989 27.5571ZM57.7333 27.5065C57.7333 27.7467 57.7691 27.9679 57.8407 28.1702C57.9166 28.3725 58.0219 28.5473 58.1568 28.6948C58.2916 28.8423 58.4517 28.9582 58.6372 29.0425C58.8268 29.1268 59.0375 29.1689 59.2692 29.1689C59.501 29.1689 59.7117 29.1268 59.9013 29.0425C60.091 28.9582 60.2532 28.8423 60.388 28.6948C60.5229 28.5473 60.6261 28.3725 60.6978 28.1702C60.7736 27.9679 60.8115 27.7467 60.8115 27.5065C60.8115 27.2832 60.7736 27.0746 60.6978 26.8807C60.6261 26.6869 60.5229 26.5183 60.388 26.3751C60.2532 26.2276 60.091 26.1138 59.9013 26.0338C59.7117 25.9495 59.501 25.9073 59.2692 25.9073C59.0375 25.9073 58.8268 25.9495 58.6372 26.0338C58.4517 26.1138 58.2916 26.2276 58.1568 26.3751C58.0219 26.5183 57.9166 26.6869 57.8407 26.8807C57.7691 27.0746 57.7333 27.2832 57.7333 27.5065Z" fill="white"/>
<path d="M55.8844 26.35C55.72 26.1731 55.5599 26.0551 55.404 25.9961C55.2523 25.9371 55.0985 25.9076 54.9426 25.9076C54.7108 25.9076 54.5001 25.9497 54.3105 26.034C54.1251 26.1141 53.965 26.2278 53.8301 26.3753C53.6953 26.5186 53.5899 26.6872 53.5141 26.881C53.4424 27.0748 53.4066 27.2834 53.4066 27.5068C53.4066 27.747 53.4424 27.9682 53.5141 28.1705C53.5899 28.3727 53.6953 28.5476 53.8301 28.6951C53.965 28.8426 54.1251 28.9585 54.3105 29.0427C54.5001 29.127 54.7108 29.1691 54.9426 29.1691C55.1238 29.1691 55.2987 29.127 55.4672 29.0427C55.64 28.9542 55.8001 28.8152 55.9476 28.6256L56.605 29.0933C56.4027 29.3714 56.1562 29.5737 55.8654 29.7001C55.5747 29.8265 55.2649 29.8897 54.9363 29.8897C54.5907 29.8897 54.2726 29.8349 53.9818 29.7254C53.6953 29.6116 53.4467 29.4536 53.236 29.2513C53.0295 29.0448 52.8672 28.7983 52.7492 28.5118C52.6313 28.2252 52.5723 27.9071 52.5723 27.5573C52.5723 27.1991 52.6313 26.8747 52.7492 26.5839C52.8672 26.2889 53.0295 26.0382 53.236 25.8317C53.4467 25.6253 53.6953 25.4672 53.9818 25.3577C54.2726 25.2439 54.5907 25.187 54.9363 25.187C55.2397 25.187 55.5199 25.2418 55.7769 25.3514C56.0382 25.4567 56.2805 25.6379 56.5038 25.8949L55.8844 26.35Z" fill="white"/>
<path d="M51.3766 26.2616C51.2923 26.1394 51.1786 26.0509 51.0353 25.9961C50.8962 25.9371 50.7487 25.9076 50.5928 25.9076C50.5001 25.9076 50.4095 25.9181 50.321 25.9392C50.2368 25.9603 50.1588 25.994 50.0872 26.0403C50.0197 26.0867 49.965 26.1478 49.9228 26.2236C49.8807 26.2953 49.8596 26.3817 49.8596 26.4828C49.8596 26.6345 49.9123 26.7504 50.0176 26.8304C50.123 26.9105 50.2536 26.98 50.4095 27.039C50.5654 27.098 50.7361 27.1549 50.9215 27.2097C51.1069 27.2645 51.2776 27.3403 51.4335 27.4372C51.5894 27.5342 51.7201 27.6627 51.8254 27.8228C51.9307 27.9829 51.9834 28.1957 51.9834 28.4612C51.9834 28.7014 51.9392 28.9121 51.8507 29.0933C51.7622 29.2703 51.6421 29.4178 51.4904 29.5358C51.3429 29.6537 51.1701 29.7422 50.9721 29.8012C50.774 29.8602 50.5654 29.8897 50.3463 29.8897C50.0682 29.8897 49.8006 29.8434 49.5436 29.7507C49.2865 29.658 49.0653 29.502 48.8799 29.2829L49.4804 28.7014C49.5773 28.8489 49.7037 28.9648 49.8596 29.0491C50.0197 29.1291 50.1883 29.1691 50.3653 29.1691C50.458 29.1691 50.5507 29.1565 50.6434 29.1312C50.7361 29.1059 50.8204 29.068 50.8962 29.0174C50.9721 28.9669 51.0332 28.9037 51.0795 28.8278C51.1259 28.7478 51.1491 28.6572 51.1491 28.556C51.1491 28.3917 51.0964 28.2653 50.991 28.1768C50.8857 28.0883 50.7551 28.0145 50.5992 27.9555C50.4432 27.8923 50.2726 27.8333 50.0872 27.7786C49.9018 27.7238 49.7311 27.65 49.5752 27.5573C49.4193 27.4604 49.2886 27.334 49.1833 27.1781C49.0779 27.018 49.0253 26.8051 49.0253 26.5397C49.0253 26.3079 49.0716 26.1077 49.1643 25.9392C49.2612 25.7706 49.3856 25.6316 49.5373 25.522C49.6932 25.4082 49.8701 25.324 50.0682 25.2692C50.2663 25.2144 50.4685 25.187 50.675 25.187C50.911 25.187 51.1385 25.2228 51.3577 25.2945C51.581 25.3661 51.7812 25.4841 51.9581 25.6484L51.3766 26.2616Z" fill="white"/>
<path d="M47.4043 25.3003H48.2007V29.7755H47.4043V25.3003Z" fill="white"/>
<path d="M42.6274 25.3003H44.391C44.6859 25.3003 44.9704 25.3466 45.2443 25.4394C45.5182 25.5278 45.7605 25.6648 45.9712 25.8502C46.1819 26.0356 46.3504 26.2695 46.4768 26.5518C46.6033 26.8299 46.6665 27.1586 46.6665 27.5379C46.6665 27.9213 46.5927 28.2542 46.4452 28.5366C46.302 28.8147 46.1144 29.0464 45.8827 29.2319C45.6551 29.4131 45.4002 29.55 45.1179 29.6427C44.8397 29.7312 44.5658 29.7755 44.2961 29.7755H42.6274V25.3003ZM44.018 29.0549C44.2666 29.0549 44.5005 29.0275 44.7196 28.9727C44.943 28.9137 45.1368 28.8252 45.3012 28.7072C45.4655 28.585 45.594 28.4291 45.6867 28.2395C45.7837 28.0456 45.8321 27.8118 45.8321 27.5379C45.8321 27.2682 45.79 27.0364 45.7057 26.8426C45.6214 26.6487 45.5034 26.4928 45.3517 26.3748C45.2042 26.2526 45.0273 26.1641 44.8208 26.1094C44.6185 26.0504 44.3952 26.0209 44.1508 26.0209H43.4239V29.0549H44.018Z" fill="white"/>
<path d="M75.25 31.501H76.1223L76.963 34.7246H76.9756L77.9806 31.501H78.7644L79.7504 34.7246H79.7631L80.6417 31.501H81.4508L80.1487 35.9761H79.3902L78.3535 32.5692H78.3409L77.3043 35.9761H76.5711L75.25 31.501Z" fill="white"/>
<path d="M70.2441 33.7578C70.2441 33.3996 70.3031 33.0751 70.4211 32.7843C70.5391 32.4894 70.7013 32.2386 70.9078 32.0322C71.1185 31.8257 71.3671 31.6677 71.6537 31.5581C71.9444 31.4443 72.2626 31.3874 72.6081 31.3874C72.9579 31.3832 73.2781 31.4359 73.5689 31.5455C73.8597 31.6508 74.1104 31.8067 74.3211 32.0132C74.5318 32.2197 74.6961 32.4683 74.8141 32.7591C74.9321 33.0498 74.9911 33.3743 74.9911 33.7325C74.9911 34.0822 74.9321 34.4004 74.8141 34.6869C74.6961 34.9735 74.5318 35.22 74.3211 35.4265C74.1104 35.6329 73.8597 35.7952 73.5689 35.9132C73.2781 36.0269 72.9579 36.0859 72.6081 36.0902C72.2626 36.0902 71.9444 36.0354 71.6537 35.9258C71.3671 35.812 71.1185 35.654 70.9078 35.4517C70.7013 35.2453 70.5391 34.9988 70.4211 34.7122C70.3031 34.4257 70.2441 34.1075 70.2441 33.7578ZM71.0785 33.7072C71.0785 33.9474 71.1143 34.1686 71.1859 34.3709C71.2618 34.5731 71.3671 34.748 71.502 34.8955C71.6368 35.043 71.797 35.1589 71.9824 35.2432C72.172 35.3274 72.3827 35.3696 72.6145 35.3696C72.8462 35.3696 73.0569 35.3274 73.2465 35.2432C73.4362 35.1589 73.5984 35.043 73.7333 34.8955C73.8681 34.748 73.9713 34.5731 74.043 34.3709C74.1188 34.1686 74.1567 33.9474 74.1567 33.7072C74.1567 33.4839 74.1188 33.2753 74.043 33.0814C73.9713 32.8876 73.8681 32.719 73.7333 32.5758C73.5984 32.4283 73.4362 32.3145 73.2465 32.2344C73.0569 32.1502 72.8462 32.108 72.6145 32.108C72.3827 32.108 72.172 32.1502 71.9824 32.2344C71.797 32.3145 71.6368 32.4283 71.502 32.5758C71.3671 32.719 71.2618 32.8876 71.1859 33.0814C71.1143 33.2753 71.0785 33.4839 71.0785 33.7072Z" fill="white"/>
<path d="M67.2065 31.501H68.003V35.2556H69.9055V35.9761H67.2065V31.501Z" fill="white"/>
<path d="M66.2629 35.6475C65.7109 35.9424 65.0935 36.0899 64.4109 36.0899C64.0653 36.0899 63.7472 36.0351 63.4564 35.9256C63.1699 35.8118 62.9213 35.6538 62.7106 35.4515C62.5041 35.245 62.3418 34.9985 62.2239 34.712C62.1059 34.4254 62.0469 34.1073 62.0469 33.7575C62.0469 33.3993 62.1059 33.0749 62.2239 32.7841C62.3418 32.4891 62.5041 32.2384 62.7106 32.0319C62.9213 31.8255 63.1699 31.6674 63.4564 31.5579C63.7472 31.4441 64.0653 31.3872 64.4109 31.3872C64.7522 31.3872 65.0725 31.4293 65.3716 31.5136C65.6708 31.5937 65.9384 31.7391 66.1744 31.9498L65.5866 32.5439C65.4433 32.4049 65.2684 32.2974 65.0619 32.2216C64.8597 32.1457 64.6447 32.1078 64.4172 32.1078C64.1854 32.1078 63.9747 32.1499 63.7851 32.2342C63.5997 32.3143 63.4396 32.428 63.3047 32.5755C63.1699 32.7188 63.0645 32.8874 62.9887 33.0812C62.917 33.275 62.8812 33.4836 62.8812 33.707C62.8812 33.9472 62.917 34.1684 62.9887 34.3706C63.0645 34.5729 63.1699 34.7478 63.3047 34.8953C63.4396 35.0428 63.5997 35.1586 63.7851 35.2429C63.9747 35.3272 64.1854 35.3693 64.4172 35.3693C64.6195 35.3693 64.8091 35.3504 64.9861 35.3125C65.1673 35.2745 65.3274 35.2155 65.4665 35.1355V34.0799H64.5499V33.3593H66.2629V35.6475Z" fill="white"/>
<path d="M56.4351 31.501H57.99C58.2049 31.501 58.4114 31.522 58.6094 31.5642C58.8117 31.6021 58.9908 31.6695 59.1467 31.7665C59.3026 31.8634 59.4269 31.994 59.5196 32.1583C59.6123 32.3227 59.6587 32.5313 59.6587 32.7841C59.6587 33.1086 59.5681 33.3804 59.3869 33.5995C59.2099 33.8186 58.955 33.9514 58.6221 33.9977L59.8104 35.9761H58.8496L57.813 34.0799H57.2315V35.9761H56.4351V31.501ZM57.8509 33.3972C57.9647 33.3972 58.0785 33.393 58.1923 33.3846C58.306 33.3719 58.4093 33.3467 58.502 33.3087C58.5989 33.2666 58.6769 33.2055 58.7358 33.1254C58.7948 33.0412 58.8243 32.9253 58.8243 32.7778C58.8243 32.6472 58.7969 32.5418 58.7422 32.4617C58.6874 32.3817 58.6158 32.3227 58.5273 32.2848C58.4388 32.2426 58.3397 32.2152 58.2302 32.2026C58.1248 32.1899 58.0216 32.1836 57.9205 32.1836H57.2315V33.3972H57.8509Z" fill="white"/>
<path d="M55.4574 34.3327C55.4574 34.6024 55.411 34.8468 55.3183 35.0659C55.2256 35.2808 55.0992 35.4641 54.9391 35.6158C54.7789 35.7675 54.5893 35.8855 54.3702 35.9698C54.1511 36.0499 53.913 36.0899 53.6559 36.0899C53.3989 36.0899 53.1608 36.0499 52.9417 35.9698C52.7226 35.8855 52.5308 35.7675 52.3665 35.6158C52.2064 35.4641 52.0799 35.2808 51.9872 35.0659C51.8987 34.8468 51.8545 34.6024 51.8545 34.3327V31.501H52.6509V34.3074C52.6509 34.417 52.6678 34.5329 52.7015 34.6551C52.7352 34.7731 52.79 34.8826 52.8658 34.9838C52.9459 35.0849 53.0491 35.1692 53.1755 35.2366C53.3062 35.2998 53.4663 35.3314 53.6559 35.3314C53.8456 35.3314 54.0036 35.2998 54.13 35.2366C54.2606 35.1692 54.3639 35.0849 54.4397 34.9838C54.5198 34.8826 54.5767 34.7731 54.6104 34.6551C54.6441 34.5329 54.6609 34.417 54.6609 34.3074V31.501H55.4574V34.3327Z" fill="white"/>
<path d="M46.3677 33.7578C46.3677 33.3996 46.4267 33.0751 46.5447 32.7843C46.6626 32.4894 46.8249 32.2386 47.0314 32.0322C47.2421 31.8257 47.4907 31.6677 47.7772 31.5581C48.068 31.4443 48.3861 31.3874 48.7317 31.3874C49.0814 31.3832 49.4017 31.4359 49.6924 31.5455C49.9832 31.6508 50.2339 31.8067 50.4446 32.0132C50.6553 32.2197 50.8197 32.4683 50.9376 32.7591C51.0556 33.0498 51.1146 33.3743 51.1146 33.7325C51.1146 34.0822 51.0556 34.4004 50.9376 34.6869C50.8197 34.9735 50.6553 35.22 50.4446 35.4265C50.2339 35.6329 49.9832 35.7952 49.6924 35.9132C49.4017 36.0269 49.0814 36.0859 48.7317 36.0902C48.3861 36.0902 48.068 36.0354 47.7772 35.9258C47.4907 35.812 47.2421 35.654 47.0314 35.4517C46.8249 35.2453 46.6626 34.9988 46.5447 34.7122C46.4267 34.4257 46.3677 34.1075 46.3677 33.7578ZM47.202 33.7072C47.202 33.9474 47.2378 34.1686 47.3095 34.3709C47.3853 34.5731 47.4907 34.748 47.6255 34.8955C47.7604 35.043 47.9205 35.1589 48.1059 35.2432C48.2955 35.3274 48.5062 35.3696 48.738 35.3696C48.9698 35.3696 49.1805 35.3274 49.3701 35.2432C49.5597 35.1589 49.7219 35.043 49.8568 34.8955C49.9916 34.748 50.0949 34.5731 50.1665 34.3709C50.2424 34.1686 50.2803 33.9474 50.2803 33.7072C50.2803 33.4839 50.2424 33.2753 50.1665 33.0814C50.0949 32.8876 49.9916 32.719 49.8568 32.5758C49.7219 32.4283 49.5597 32.3145 49.3701 32.2344C49.1805 32.1502 48.9698 32.108 48.738 32.108C48.5062 32.108 48.2955 32.1502 48.1059 32.2344C47.9205 32.3145 47.7604 32.4283 47.6255 32.5758C47.4907 32.719 47.3853 32.8876 47.3095 33.0814C47.2378 33.2753 47.202 33.4839 47.202 33.7072Z" fill="white"/>
<path d="M43.7204 34.0609L42.0391 31.501H43.0378L44.1376 33.2835L45.2501 31.501H46.1982L44.5168 34.0609V35.9761H43.7204V34.0609Z" fill="white"/>
<path d="M27.2702 0H5.14027C2.30569 0 0 2.29471 0 5.11578V34.3023C0 37.1234 2.30569 39.4181 5.14027 39.4181H7.86194H9.8408H22.5043H24.4832H27.2702C30.1048 39.4181 32.4105 37.1234 32.4105 34.3023V5.11578C32.4105 2.29471 30.1048 0 27.2702 0ZM2.24627 9.35626L9.65658 16.5598H2.24627V9.35626ZM2.24627 18.7894H11.9563L15.0524 21.7997V26.5547L15.0464 27.6725H2.24627V18.7894ZM17.2987 16.406L29.873 3.86197C30.0572 4.24048 30.1642 4.6663 30.1642 5.11578V12.2542L17.2927 24.5617V16.406H17.2987ZM30.1642 15.3533V27.2881L23.9186 21.3325L30.1642 15.3533ZM28.1853 2.38342L17.2987 13.2419V2.23557H27.2702C27.5911 2.23557 27.8942 2.28879 28.1853 2.38342ZM5.14027 2.23557H15.0524V18.677L2.24627 6.22765V5.11578C2.24627 3.53077 3.54173 2.23557 5.14027 2.23557ZM7.86194 37.1885H5.14027C3.54173 37.1885 2.24627 35.8933 2.24627 34.3083V29.914H15.0405L15.0345 32.0372C15.0286 34.8819 12.6991 37.1944 9.8408 37.1944H7.86194V37.1885ZM27.2702 37.1885H24.4832H22.5043C19.6459 37.1885 17.3165 34.876 17.3105 32.0313L17.2987 27.6607L22.2963 22.882L30.1642 30.3871V34.3142C30.1642 35.8992 28.8687 37.1885 27.2702 37.1885Z" fill="white"/>
</svg>
