<svg width="41" height="41" viewBox="0 0 41 41" fill="none" xmlns="http://www.w3.org/2000/svg">
<path d="M3.4165 10.25C3.4165 7.02869 3.4165 5.41806 4.41723 4.41735C5.41794 3.41663 7.02857 3.41663 10.2498 3.41663C13.4711 3.41663 15.0817 3.41663 16.0824 4.41735C17.0832 5.41806 17.0832 7.02869 17.0832 10.25V13.6666C17.0832 16.8879 17.0832 18.4985 16.0824 19.4992C15.0817 20.5 13.4711 20.5 10.2498 20.5C7.02857 20.5 5.41794 20.5 4.41723 19.4992C3.4165 18.4985 3.4165 16.8879 3.4165 13.6666V10.25Z" stroke="#F18453" stroke-width="1.5"/>
<path d="M3.4165 32.4584C3.4165 30.8664 3.4165 30.0705 3.67658 29.4425C4.02336 28.6054 4.68849 27.9402 5.52566 27.5934C6.15356 27.3334 6.94954 27.3334 8.5415 27.3334H11.9582C13.5501 27.3334 14.3461 27.3334 14.974 27.5934C15.8112 27.9402 16.4763 28.6054 16.8231 29.4425C17.0832 30.0705 17.0832 30.8664 17.0832 32.4584C17.0832 34.0504 17.0832 34.8463 16.8231 35.4743C16.4763 36.3113 15.8112 36.9766 14.974 37.3234C14.3461 37.5834 13.5501 37.5834 11.9582 37.5834H8.5415C6.94954 37.5834 6.15356 37.5834 5.52566 37.3234C4.68849 36.9766 4.02336 36.3113 3.67658 35.4743C3.4165 34.8463 3.4165 34.0504 3.4165 32.4584Z" stroke="#F18453" stroke-width="1.5"/>
<path d="M23.9165 27.3333C23.9165 24.1121 23.9165 22.5015 24.9172 21.5007C25.918 20.5 27.5286 20.5 30.7498 20.5C33.9711 20.5 35.5817 20.5 36.5824 21.5007C37.5832 22.5015 37.5832 24.1121 37.5832 27.3333V30.75C37.5832 33.9712 37.5832 35.5819 36.5824 36.5826C35.5817 37.5833 33.9711 37.5833 30.7498 37.5833C27.5286 37.5833 25.918 37.5833 24.9172 36.5826C23.9165 35.5819 23.9165 33.9712 23.9165 30.75V27.3333Z" stroke="#F18453" stroke-width="1.5"/>
<path d="M23.9165 8.54163C23.9165 6.94966 23.9165 6.15368 24.1765 5.52579C24.5233 4.68862 25.1885 4.02348 26.0256 3.6767C26.6536 3.41663 27.4495 3.41663 29.0415 3.41663H32.4582C34.0502 3.41663 34.8461 3.41663 35.4741 3.6767C36.3111 4.02348 36.9764 4.68862 37.3232 5.52579C37.5832 6.15368 37.5832 6.94966 37.5832 8.54163C37.5832 10.1336 37.5832 10.9296 37.3232 11.5575C36.9764 12.3946 36.3111 13.0598 35.4741 13.4065C34.8461 13.6666 34.0502 13.6666 32.4582 13.6666H29.0415C27.4495 13.6666 26.6536 13.6666 26.0256 13.4065C25.1885 13.0598 24.5233 12.3946 24.1765 11.5575C23.9165 10.9296 23.9165 10.1336 23.9165 8.54163Z" stroke="#F18453" stroke-width="1.5"/>
</svg>
