<svg width="28" height="28" viewBox="0 0 28 28" fill="none" xmlns="http://www.w3.org/2000/svg">
<path d="M13.4168 9.33325H23.5622C24.2911 9.33325 24.6556 9.33325 24.9224 9.4509C26.1027 9.9713 25.575 11.2825 25.3764 12.2247C25.3407 12.394 25.2247 12.5381 25.062 12.6153C24.3873 12.9355 23.9147 13.5427 23.7907 14.2489L23.0993 18.1857C22.7952 19.9178 22.6912 22.3933 21.1733 23.6135C20.0596 24.4999 18.455 24.4999 15.2456 24.4999H12.7547C9.54539 24.4999 7.94073 24.4999 6.82703 23.6135C5.30911 22.3932 5.20511 19.9178 4.90094 18.1857L4.20958 14.2489C4.08556 13.5427 3.61302 12.9355 2.93831 12.6153C2.77562 12.5381 2.65961 12.394 2.62393 12.2247C2.42536 11.2825 1.89763 9.9713 3.07797 9.4509C3.34481 9.33325 3.70926 9.33325 4.43813 9.33325H8.75017" stroke="#F3A17C" stroke-width="1.5" stroke-linecap="round"/>
<path d="M16.3332 14H11.6665" stroke="#F3A17C" stroke-width="1.5" stroke-linecap="round" stroke-linejoin="round"/>
<path d="M7.5835 12.8333L11.6668 3.5M17.5002 3.5L20.4168 9.33333" stroke="#F3A17C" stroke-width="1.5" stroke-linecap="round"/>
</svg>
