<svg width="45" height="44" viewBox="0 0 45 44" fill="none" xmlns="http://www.w3.org/2000/svg">
<path d="M14.0879 14.6666V11.6666C14.0879 7.24835 17.7815 3.66663 22.3379 3.66663C26.8943 3.66663 30.5879 7.24835 30.5879 11.6666V14.6666" stroke="black" stroke-width="2.5"/>
<path d="M25.7881 13.75H18.8889C11.7597 13.75 9.00196 15.5613 7.03039 22.4351C5.25457 28.6264 4.36667 31.722 5.29499 34.1227C5.86349 35.5929 6.87287 36.8678 8.19527 37.7857C12.9783 41.1063 31.4805 41.2579 36.4818 37.7857C37.8042 36.8678 38.8136 35.5929 39.3821 34.1227C40.3103 31.722 39.4225 28.6264 37.6467 22.4351C35.7536 15.8349 33.2126 13.75 25.7881 13.75Z" fill="black"/>
<path d="M20.5039 20.1667H24.1706" stroke="white" stroke-width="2.5" stroke-linecap="round"/>
</svg>
