<svg width="31" height="38" viewBox="0 0 31 38" fill="none" xmlns="http://www.w3.org/2000/svg">
<path d="M26.0173 0H4.90411C2.19976 0 0 2.18928 0 4.88074V32.7264C0 35.4179 2.19976 37.6071 4.90411 37.6071H7.50074H9.38868H21.4704H23.3583H26.0173C28.7217 37.6071 30.9214 35.4179 30.9214 32.7264V4.88074C30.9214 2.18928 28.7217 0 26.0173 0ZM2.14307 8.92641L9.21293 15.799H2.14307V8.92641ZM2.14307 17.9262H11.407L14.3608 20.7982V25.3347L14.3552 26.4012H2.14307V17.9262ZM16.5039 15.6522L28.5006 3.68454C28.6763 4.04566 28.7784 4.45192 28.7784 4.88074V11.6912L16.4982 23.4332V15.6522H16.5039ZM28.7784 14.6479V26.0344L22.8197 20.3524L28.7784 14.6479ZM26.8904 2.27392L16.5039 12.6335V2.13286H26.0173C26.3235 2.13286 26.6126 2.18364 26.8904 2.27392ZM4.90411 2.13286H14.3608V17.819L2.14307 5.94153V4.88074C2.14307 3.36856 3.37902 2.13286 4.90411 2.13286ZM7.50074 35.4799H4.90411C3.37902 35.4799 2.14307 34.2442 2.14307 32.732V28.5397H14.3495L14.3438 30.5653C14.3381 33.2794 12.1157 35.4856 9.38868 35.4856H7.50074V35.4799ZM26.0173 35.4799H23.3583H21.4704C18.7433 35.4799 16.5209 33.2737 16.5152 30.5597L16.5039 26.3899L21.272 21.8308L28.7784 28.9911V32.7377C28.7784 34.2499 27.5424 35.4799 26.0173 35.4799Z" fill="#F3A17C"/>
</svg>
